<svg width="60" height="54" viewBox="0 0 60 54" fill="none" xmlns="http://www.w3.org/2000/svg">
<circle cx="22" cy="32" r="22" fill="#A5DAD0" fill-opacity="0.5"/>
<path d="M23.6291 47.8581C18.4462 39.4589 12.656 31.5345 7 23.6755C8.30809 22.3215 9.57202 21.0117 10.8801 19.6559C15.0974 22.5986 19.3165 25.5414 23.5885 28.523C24.457 27.4373 25.2867 26.3887 26.1287 25.349C32.971 16.9232 40.5019 9.19829 49.1871 2.64729C50.2762 1.82643 51.4112 1.06382 52.5428 0.302979C52.7846 0.140572 53.106 0.0187672 53.3936 0.0152366C55.3091 -0.00947752 57.2263 0.0028793 59.1414 0.00464458C59.2245 0.00464458 59.3056 0.0311239 59.4594 0.0576033C59.3587 0.181174 59.3056 0.267673 59.2332 0.331225C53.2577 5.69948 48.1366 11.8321 43.3192 18.226C36.6216 27.1143 30.519 36.4049 24.8348 45.9695C24.487 46.5555 24.1445 47.1469 23.7968 47.7329C23.7774 47.7681 23.7297 47.786 23.6291 47.8581Z" fill="#6FC7B5"/>
</svg>
