<svg width="19" height="17" viewBox="0 0 19 17" fill="none" xmlns="http://www.w3.org/2000/svg">
<path d="M6.58117 16.5877C4.78476 13.6765 2.77788 10.9299 0.817505 8.20595C1.27089 7.73666 1.70897 7.28267 2.16236 6.81276C3.62408 7.83272 5.08641 8.85268 6.56709 9.8861C6.86812 9.50981 7.1557 9.14637 7.44755 8.78599C9.81909 5.86561 12.4293 3.18814 15.4396 0.917555C15.8171 0.633043 16.2105 0.368722 16.6027 0.105013C16.6865 0.0487225 16.7979 0.00650473 16.8976 0.00528103C17.5615 -0.00328492 18.226 0.000997969 18.8898 0.00160982C18.9186 0.00160982 18.9467 0.0107876 19 0.0199654C18.9651 0.0627951 18.9467 0.0927759 18.9216 0.114803C16.8505 1.97545 15.0755 4.10103 13.4058 6.31716C11.0844 9.39784 8.96923 12.618 6.99906 15.9331C6.87853 16.1362 6.75983 16.3412 6.63929 16.5443C6.63256 16.5565 6.61604 16.5627 6.58117 16.5877Z" fill="#6FC7B5"/>
</svg>
